{"title":"Confessions Of A Shopaholic[2009]DvDrip-LW","uid":4933130,"size":734128906,"categoryP":"video","categoryS":"movies","magnet":"?xt=urn:btih:a2bb9a42dad97eec2bacbedcf847ee542a7eac55&amp;dn=Confessions+Of+A+Shopaholic%5B2009%5DDvDrip-LW&amp;tr=udp%3A%2F%2Ftracker.openbittorrent.com%3A80&amp;tr=udp%3A%2F%2Fopen.demonii.com%3A1337&amp;tr=udp%3A%2F%2Ftracker.coppersurfer.tk%3A6969&amp;tr=udp%3A%2F%2Fexodus.desync.com%3A6969","seeders":0,"leechers":0,"uploader":"XoLWoX","files":-1,"time":1244131320,"description":"-------------------------------------------------\nF I L E - I N F O\n-------------------------------------------------\nTITLE......[ Confessions Of A Shopaholic\nYEAR.......[ 2009\nGENRE......[ Comedy\nRUNTIME....[ 01:44:13\nSTORE DATE.[ 2009 (USA)\nIMDB RATE..[ 5.8/10 (4,935 Votes)\nIMDB URL...[ http://www.imdb.com/title/tt1093908/\n-------------------------------------------------\nFormat                           : AVI\nFormat/Info                      : Audio Video Interleave\nFile size                        : 700 MiB\nDuration                         : 1h 44mn\nOverall bit rate                 : 939 Kbps\nWriting application              : VirtualDubMod 1.5.10.2 (build 2540/release)\nWriting library                  : VirtualDubMod build 2540/release\nSOURCE                           : DVD\n-------------------------------------------------\nV I D E O\n-------------------------------------------------\nFormat                           : MPEG-4 Visual\nFormat profile                   : Streaming Video@L1\nFormat settings, BVOP            : Yes\nFormat settings, QPel            : No\nFormat settings, GMC             : No warppoints\nFormat settings, Matrix          : Default (MPEG)\nCodec ID                         : XVID\nCodec ID/Hint                    : XviD\nDuration                         : 1h 44mn\nBit rate                         : 796 Kbps\nWidth                            : 640 pixels\nHeight                           : 272 pixels\nDisplay aspect ratio             : 2.35\nFrame rate                       : 23.976 fps\nResolution                       : 24 bits\nColorimetry                      : 4:2:0\nScan type                        : Progressive\nBits/(Pixel*Frame)               : 0.191\nStream size                      : 593 MiB (85%)\nWriting library                  : XviD 1.2.1\n-------------------------------------------------\nA U D I O\n-------------------------------------------------\nFormat                           : MPEG Audio\nFormat version                   : Version 1\nFormat profile                   : Layer 3\nCodec ID                         : 55\nCodec ID/Hint                    : MP3\nDuration                         : 1h 44mn\nBit rate mode                    : Variable\nBit rate                         : 131 Kbps\nNominal bit rate                 : 128 Kbps\nChannel(s)                       : 2 channels\nSampling rate                    : 48.0 KHz\nResolution                       : 16 bits\nStream size                      : 97.4 MiB (14%)\nAlignment                        : Aligned on interleaves\nInterleave, duration             : 24 ms (0.58 video frame)\nInterleave, preload duration     : 141 ms\nWriting library                  : LAME3.90.\nEncoding settings                : ABR\n-------------------------------------------------\nP L O T\n-------------------------------------------------\nWith dreams of writing for a top fashion magazine, \nshopping addict Rebecca (Isla Fisher) begins working \nfor a financial magazine released by the same publisher. \nAs her career skyrockets, Rebecca struggles to pay off \noverwhelming bills and manage her love life. Teetering \non the brink of bankruptcy, Rebecca must start reevaluating \nher priorities. Joan Cusack, John Goodman and Krysten Ritter \nco-star. \n\nStarring: Isla Fisher, Hugh Dancy\n\nDirector: P.J. Hogan\n-------------------------------------------------","torrent":{"xt":"urn:btih:a2bb9a42dad97eec2bacbedcf847ee542a7eac55","amp;dn":"Confessions+Of+A+Shopaholic%5B2009%5DDvDrip-LW","amp;tr":["udp%3A%2F%2Ftracker.openbittorrent.com%3A80","udp%3A%2F%2Fopen.demonii.com%3A1337","udp%3A%2F%2Ftracker.coppersurfer.tk%3A6969","udp%3A%2F%2Fexodus.desync.com%3A6969"],"infoHash":"a2bb9a42dad97eec2bacbedcf847ee542a7eac55","infoHashBuffer":{"type":"Buffer","data":[162,187,154,66,218,217,126,236,43,172,190,220,248,71,238,84,42,126,172,85]},"announce":[],"urlList":[]}}